<?xml version="1.0" encoding="utf-8"?>
<!-- Generator: Adobe Illustrator 22.1.0, SVG Export Plug-In . SVG Version: 6.00 Build 0)  -->
<svg version="1.1" id="Layer_1" xmlns="http://www.w3.org/2000/svg" xmlns:xlink="http://www.w3.org/1999/xlink" x="0px" y="0px"
	 viewBox="0 0 100 100" style="enable-background:new 0 0 100 100;" xml:space="preserve">
<style type="text/css">
	.st0{fill:#FFFFFF;}
	.st1{fill:#F9BF31;}
	.st2{fill:#6D3E94;}
</style>
<title>Asset 7</title>
<g>
	<path class="st0" d="M77.3,0H22.8C10.7,0,0.9,9.8,0.9,21.9v56.3c0,12.1,9.8,21.9,21.9,21.9h54.5c12.1,0,21.9-9.8,21.9-21.9V21.9
		C99.1,9.8,89.3,0,77.3,0z"/>
	<circle class="st1" cx="50" cy="50" r="38.6"/>
	<g>
		<path class="st0" d="M51,17.7c0.5,0.1,1,0.2,1.5,0.4c1.2,0.4,2.3,1,3.2,1.9c5.4,5.3,10.7,10.7,16,16.1c3,3,3,7.9,0.2,11.1
			c-0.1,0.1-0.2,0.2-0.4,0.4c-0.8-0.8-1.5-1.5-2.3-2.3c-0.7-0.7-1.5-1.5-2.2-2.2c0.2-0.4,0.3-0.7,0.4-1c0.1-0.7-0.1-1.3-0.6-1.8
			c-4.5-4.5-9-9-13.5-13.5c-0.7-0.7-1.3-1.4-2-2c-0.8-0.8-1.9-0.8-2.7,0c-5.2,5.2-10.4,10.4-15.6,15.6c-0.8,0.8-0.8,1.9,0,2.7
			c0.3,0.3,0.5,0.5,0.8,0.7c-1.6,1.6-3,3.1-4.5,4.5c-4.2-3.4-4.2-9.1-0.8-12.5c4.9-4.9,9.8-9.8,14.8-14.8c0.3-0.3,0.7-0.7,1.1-1
			c1.3-1.2,2.7-1.9,4.4-2.2c0.1,0,0.2-0.1,0.3-0.1C49.7,17.7,50.4,17.7,51,17.7z"/>
		<path class="st0" d="M70.3,51.2c1.6,1.4,3,3,3.5,5.2c0.6,2.7,0,5.1-1.8,7.2c-0.2,0.2-0.4,0.4-0.6,0.7
			c-5.1,5.1-10.2,10.2-15.3,15.3c-1.9,1.9-4.2,2.8-6.9,2.6c-2-0.2-3.7-1.1-5.1-2.5c-3-3-6-6-9-9c-2.1-2.1-4.3-4.3-6.4-6.4
			c-3.5-3.5-3.5-8.5,0-12c2.2-2.2,4.3-4.3,6.5-6.5c0.1-0.1,0.2-0.2,0.3-0.3c1.5,1.5,3,3,4.5,4.5c-0.1,0.1-0.2,0.2-0.3,0.3
			c-2.1,2.2-4.3,4.3-6.5,6.5c-1,1-1,2,0,3c5.1,5.1,10.2,10.2,15.3,15.3c1,1,2,1,3,0c5.1-5.1,10.2-10.2,15.3-15.3c1-1,1-2,0-3
			c-0.4-0.4-0.7-0.7-1.1-1.1C67.3,54.2,68.8,52.7,70.3,51.2z"/>
		<path class="st2" d="M69.7,49.5c-0.1,0.1-0.3,0.2-0.4,0.3c-4.4,4.4-8.8,8.8-13.2,13.2c-1.9,1.9-4.2,2.8-6.8,2.6
			c-1.8-0.2-3.4-0.8-4.7-2.1c-2.5-2.4-4.9-4.8-7.3-7.2c0,0,0-0.1,0,0c1.5-1.5,3-3,4.5-4.5c0.1,0.1,0.2,0.2,0.3,0.3
			c2.2,2.2,4.3,4.3,6.5,6.5c1,1,2,1,3,0c4.4-4.4,8.8-8.8,13.2-13.2c0.1-0.1,0.2-0.3,0.3-0.4C66.6,46.4,68.1,47.9,69.7,49.5z"/>
		<path class="st0" d="M41.3,43.8c0-0.2,0-0.5,0.1-0.7c0.3-1,0.3-2.1,0-3.1c-0.3-1,0-1.9,0.8-2.5c0.9-0.7,1.5-1.5,1.9-2.5
			c0.5-1.3,1.5-1.6,2.7-1.6c0.7,0,1.3-0.3,1.9-0.6c0.1-0.1,0.3-0.2,0.4-0.2c0.9-0.6,1.9-0.6,2.8,0c0.9,0.6,1.9,0.9,3,1
			c0.9,0.1,1.6,0.5,1.9,1.3c0.2,0.3,0.3,0.7,0.5,1c0.3,0.4,0.6,0.9,0.9,1.3c0.2,0.2,0.5,0.4,0.7,0.6c0.7,0.6,0.9,1.4,0.7,2.3
			c-0.3,1.1-0.3,2.3,0,3.4c0.2,0.9,0,1.7-0.7,2.3c-0.9,0.8-1.6,1.7-2.1,2.9c-0.4,0.9-1.1,1.3-2.1,1.4c-1,0.1-2,0.3-2.8,0.9
			c-1,0.7-2,0.7-3,0c-0.8-0.6-1.8-0.8-2.8-0.9c-1-0.1-1.7-0.5-2.1-1.4c-0.4-1.1-1.1-2-2-2.7C41.6,45.1,41.3,44.5,41.3,43.8z
			 M47.1,45.7c0,0.6,0.6,1,1.1,0.7c0.7-0.3,1.4-0.7,2.1-1.1c0.2-0.1,0.4-0.1,0.6,0c0.6,0.3,1.2,0.6,1.9,1c0.4,0.2,0.7,0.3,1.1,0
			c0.3-0.3,0.3-0.6,0.2-1c-0.1-0.7-0.3-1.4-0.3-2.1c0-0.2,0.1-0.4,0.2-0.5c0.5-0.5,1-1,1.5-1.5c0.3-0.3,0.5-0.5,0.4-0.9
			c-0.1-0.4-0.5-0.5-0.9-0.6c-0.7-0.1-1.4-0.2-2.1-0.3c-0.2,0-0.4-0.2-0.5-0.3c-0.3-0.6-0.7-1.3-1-2c-0.2-0.3-0.4-0.6-0.8-0.5
			c-0.3,0.1-0.6,0.3-0.7,0.5c-0.4,0.6-0.7,1.3-1,1.9c-0.1,0.3-0.3,0.4-0.6,0.4c-0.8,0.1-1.5,0.2-2.3,0.3c-0.3,0.1-0.6,0.3-0.6,0.5
			c-0.1,0.2,0.1,0.6,0.3,0.8c0.5,0.6,1.1,1.1,1.6,1.7c0.1,0.1,0.2,0.4,0.2,0.5C47.4,44.1,47.2,44.9,47.1,45.7z"/>
	</g>
</g>
</svg>
